<?xml version="1.0" standalone="no"?>
<!DOCTYPE svg PUBLIC "-//W3C//DTD SVG 20010904//EN"
 "http://www.w3.org/TR/2001/REC-SVG-20010904/DTD/svg10.dtd">
<svg version="1.0" xmlns="http://www.w3.org/2000/svg"
 width="5549.000000pt" height="5549.000000pt" viewBox="0 0 5549.000000 5549.000000"
 preserveAspectRatio="xMidYMid meet">

<g transform="translate(0.000000,5549.000000) scale(0.100000,-0.100000)"
fill="#000000" stroke="none">
<path d="M31323 30958 c-704 -1144 -1563 -2555 -2006 -3293 -82 -137 -155
-255 -161 -260 -6 -6 -12 -16 -13 -22 -4 -21 -65 -114 -71 -109 -2 3 3 16 11
30 16 23 16 25 -3 23 -17 -1 -19 -7 -16 -37 4 -34 -19 -98 -31 -86 -4 3 0 17
7 31 7 14 10 28 7 32 -4 3 -7 -2 -7 -13 0 -16 -2 -17 -11 -4 -9 13 -10 13 -8
0 4 -38 0 -41 -28 -27 -16 8 -34 12 -42 9 -9 -3 -12 0 -8 10 6 18 -38 42 -55
32 -6 -4 -8 -3 -5 2 3 6 3 14 -1 19 -10 14 -49 35 -66 35 -8 0 -16 7 -20 15
-3 8 -10 15 -16 15 -6 0 -8 -4 -5 -10 3 -6 -1 -7 -10 -3 -12 4 -13 8 -4 13 8
6 4 12 -12 20 -13 7 -26 16 -29 19 -11 14 -152 94 -165 94 -8 0 -12 4 -10 8 7
11 -44 41 -57 33 -6 -4 -8 -3 -5 3 9 14 -40 46 -56 37 -7 -4 -9 -4 -5 1 12 12
-38 46 -59 39 -13 -4 -14 -3 -5 4 10 7 5 13 -21 25 -19 9 -47 34 -63 54 -16
21 -48 58 -71 82 -24 24 -43 47 -43 51 0 4 -11 18 -25 31 -13 13 -25 30 -25
37 0 26 -31 9 -90 -50 -15 -16 -30 -28 -34 -28 -4 0 0 7 8 16 21 20 21 41 0
24 -12 -11 -15 -11 -12 1 2 8 -10 18 -29 23 -18 6 -33 16 -33 24 0 9 -7 11
-22 7 -16 -4 -19 -3 -9 3 17 12 -3 27 -21 16 -7 -4 -10 -4 -6 1 11 11 -40 48
-54 39 -7 -4 -4 3 7 17 11 13 13 19 5 13 -8 -6 -26 -11 -40 -12 -17 -1 -20 2
-11 7 9 6 10 11 2 15 -6 4 -16 4 -21 1 -6 -4 -9 -1 -8 6 2 7 -10 17 -27 23
-33 12 -47 25 -38 39 3 5 -4 4 -16 -2 -17 -9 -21 -9 -19 1 2 8 -6 12 -22 10
-18 -1 -21 1 -11 7 20 13 -29 44 -55 35 -18 -6 -18 -5 1 10 11 10 15 15 8 12
-10 -6 -102 44 -130 70 -31 30 -114 75 -124 68 -8 -4 -9 -3 -5 4 4 6 -4 17
-16 25 -102 62 -175 113 -171 120 3 5 -4 4 -16 -2 -17 -10 -21 -9 -21 4 0 12
-6 15 -22 10 -16 -4 -19 -3 -9 3 16 12 -3 27 -21 16 -6 -4 -8 -3 -5 3 8 13
-40 46 -54 38 -5 -4 -8 -1 -7 7 2 8 -6 12 -22 11 -14 -1 -19 1 -13 3 10 4 10
9 -1 20 -8 8 -17 14 -21 14 -3 0 -19 10 -35 21 -17 13 -37 20 -49 16 -15 -4
-21 0 -21 12 0 19 -36 45 -51 36 -5 -4 -8 -1 -7 7 2 8 -5 12 -19 11 -24 -3
-32 12 -10 20 7 4 6 6 -5 6 -9 1 -29 11 -45 24 -15 12 -40 29 -55 36 -16 8
-28 18 -28 23 0 4 -5 8 -11 8 -5 0 -26 11 -46 24 -19 14 -42 22 -49 19 -8 -3
-14 1 -14 9 0 7 -9 19 -21 26 -17 11 -24 11 -37 0 -11 -8 -10 -5 3 11 11 14
15 22 9 18 -6 -3 -25 3 -42 14 -18 10 -42 19 -55 20 -12 0 -16 3 -9 6 20 8
-51 53 -82 53 -27 0 -35 14 -13 24 6 4 2 4 -10 2 -13 -2 -23 1 -23 8 0 17 -37
36 -57 30 -15 -5 -15 -4 -3 5 12 8 12 11 -3 17 -9 3 -17 12 -17 20 0 8 -9 14
-21 14 -20 0 -80 36 -87 52 -2 4 -9 8 -16 8 -7 0 -23 10 -35 22 -13 12 -37 21
-52 21 -16 0 -29 4 -29 9 0 5 5 6 10 3 6 -3 10 -4 10 -1 0 13 -80 57 -91 50
-8 -4 -9 -3 -5 4 4 7 2 12 -4 12 -6 0 -8 5 -5 10 4 6 3 10 -2 9 -21 -4 -56 2
-49 8 9 9 -203 145 -215 137 -5 -3 -8 0 -7 7 2 7 -10 17 -26 23 -16 6 -42 23
-59 38 -28 27 -54 38 -42 18 3 -5 1 -10 -5 -10 -7 0 -10 6 -7 14 8 21 -18 39
-45 31 -15 -4 -19 -3 -10 3 17 11 -61 67 -79 56 -8 -4 -9 -3 -5 4 5 8 -2 12
-21 12 -17 0 -23 3 -16 8 9 6 3 13 -17 26 -17 9 -28 21 -25 27 3 5 -1 6 -9 3
-9 -3 -16 -2 -16 4 0 5 -13 15 -29 22 -16 6 -44 23 -62 36 -21 15 -41 22 -53
18 -13 -3 -16 -2 -9 3 8 5 -17 27 -72 63 -47 30 -84 59 -85 64 0 5 -8 2 -17
-5 -10 -8 -14 -9 -10 -2 5 8 -15 27 -55 54 -35 24 -70 51 -79 61 -10 11 -30
18 -53 18 -24 0 -36 5 -36 14 0 19 -96 80 -111 70 -7 -4 -9 -3 -6 4 8 12 -78
72 -104 72 -9 0 -19 6 -22 13 -8 20 -130 98 -145 92 -7 -2 -11 -1 -8 4 3 5 -6
16 -20 26 -24 16 -26 15 -46 -11 -12 -14 -38 -45 -59 -68 -31 -34 -208 -259
-344 -436 -30 -39 -260 -336 -319 -412 -12 -15 -27 -27 -33 -27 -7 -1 -20 -17
-28 -37 l-15 -36 -37 36 c-92 89 -219 195 -233 196 -9 0 -22 9 -30 20 -8 11
-20 20 -27 20 -7 0 -13 3 -13 8 0 4 -18 15 -39 24 -22 10 -50 28 -63 41 -28
28 -68 44 -68 28 0 -6 1 -12 3 -14 1 -1 -7 -12 -19 -25 -22 -24 -244 -393
-451 -752 -72 -124 -229 -396 -350 -605 -198 -342 -986 -1708 -3055 -5295
-383 -663 -871 -1509 -1085 -1880 -1076 -1863 -1411 -2443 -1521 -2632 l-120
-208 3802 0 3801 0 375 648 c1179 2039 3529 6051 3569 6095 4 4 180 -286 392
-644 211 -358 389 -656 395 -663 41 -44 2219 -3771 3123 -5343 l53 -93 3789 0
c2083 0 3790 3 3792 8 3 4 -79 151 -180 327 -580 1003 -2172 3761 -3036 5260
-631 1095 -714 1239 -1052 1825 -186 322 -404 700 -485 840 -81 140 -161 278
-178 305 -16 28 -78 133 -137 235 -59 102 -115 196 -124 210 -10 14 -32 51
-50 83 -18 31 -37 57 -42 57 -5 0 -9 7 -9 15 0 18 -47 17 -54 -2 -4 -8 -25
-13 -61 -13 -30 0 -55 -4 -55 -10 0 -5 -13 -10 -30 -10 -16 0 -30 -4 -30 -10
0 -5 -22 -10 -50 -10 -27 0 -50 -4 -50 -10 0 -5 -22 -10 -50 -10 -27 0 -50 -4
-50 -10 0 -5 -13 -10 -30 -10 -16 0 -30 -4 -30 -10 0 -5 -13 -10 -30 -10 -16
0 -30 -4 -30 -10 0 -6 -27 -10 -60 -10 -33 0 -60 -4 -60 -10 0 -5 -22 -10 -50
-10 -27 0 -50 -4 -50 -10 0 -5 -22 -10 -50 -10 -27 0 -50 -4 -50 -10 0 -5 -13
-10 -30 -10 -16 0 -30 -4 -30 -10 0 -5 -13 -10 -30 -10 -16 0 -30 -4 -30 -10
0 -5 -22 -10 -50 -10 -27 0 -50 -4 -50 -10 0 -5 -13 -10 -30 -10 -16 0 -30 -4
-30 -10 0 -5 -22 -10 -50 -10 -27 0 -50 -4 -50 -10 0 -5 -18 -10 -39 -10 -22
0 -43 -4 -46 -10 -3 -5 -22 -10 -41 -10 -19 0 -34 -4 -34 -10 0 -5 -22 -10
-50 -10 -27 0 -50 -4 -50 -10 0 -5 -13 -10 -30 -10 -16 0 -30 -4 -30 -10 0 -5
-13 -10 -30 -10 -16 0 -30 -4 -30 -10 0 -6 -27 -10 -60 -10 -33 0 -60 -4 -60
-10 0 -5 -18 -10 -40 -10 -22 0 -40 -4 -40 -10 0 -5 -13 -10 -30 -10 -16 0
-30 -4 -30 -10 0 -5 -22 -10 -50 -10 -27 0 -50 -4 -50 -10 0 -5 -22 -10 -50
-10 -27 0 -50 -4 -50 -10 0 -5 -22 -10 -50 -10 -27 0 -50 -4 -50 -10 0 -5 -9
-10 -20 -10 -11 0 -20 -4 -20 -10 0 -5 -22 -10 -50 -10 -27 0 -50 -4 -50 -10
0 -5 -18 -10 -40 -10 -22 0 -40 -4 -40 -10 0 -5 -13 -10 -30 -10 -16 0 -30 -4
-30 -10 0 -5 -22 -10 -50 -10 -27 0 -50 -4 -50 -10 0 -5 -22 -10 -50 -10 -27
0 -50 -4 -50 -10 0 -5 -13 -10 -30 -10 -16 0 -30 -4 -30 -10 0 -6 -27 -10 -60
-10 -33 0 -60 -4 -60 -10 0 -5 -9 -10 -20 -10 -11 0 -20 -4 -20 -10 0 -6 -27
-10 -60 -10 -33 0 -60 -4 -60 -10 0 -5 -9 -10 -20 -10 -11 0 -20 -4 -20 -10 0
-5 -13 -10 -30 -10 -16 0 -30 -4 -30 -10 0 -5 -22 -10 -50 -10 -27 0 -50 -4
-50 -10 0 -6 -30 -10 -70 -10 -40 0 -70 -4 -70 -10 0 -5 -18 -10 -40 -10 -22
0 -40 -4 -40 -10 0 -5 -13 -10 -30 -10 -16 0 -30 -4 -30 -10 0 -5 -9 -10 -20
-10 -11 0 -20 -4 -20 -10 0 -6 -27 -10 -60 -10 -33 0 -60 -4 -60 -10 0 -5 -18
-10 -40 -10 -22 0 -40 -4 -40 -9 0 -12 -54 -11 -62 2 -9 15 19 67 37 67 8 0
15 5 15 11 0 5 -5 7 -12 3 -6 -4 -9 -3 -6 2 3 5 27 46 53 92 26 45 50 80 54
78 4 -3 7 3 7 12 0 9 451 798 1002 1754 551 955 1002 1739 1002 1742 0 7 -669
1166 -680 1179 -4 5 -160 -241 -347 -545z m-7223 -678 c0 -5 -4 -10 -10 -10
-5 0 -10 5 -10 10 0 6 5 10 10 10 6 0 10 -4 10 -10z m64 -75 c-7 -16 -24 -21
-24 -6 0 8 7 13 27 20 1 1 0 -6 -3 -14z m710 -340 c11 -9 14 -15 7 -15 -7 0
-19 7 -27 15 -20 19 -5 19 20 0z m156 -100 c7 -8 9 -15 6 -15 -4 0 -14 7 -22
15 -9 8 -11 15 -6 15 5 0 15 -7 22 -15z m246 -160 c12 -9 14 -14 6 -15 -7 0
-20 7 -28 15 -20 19 -4 20 22 0z m1104 -716 c0 -4 -9 -5 -20 -2 -11 3 -20 12
-20 19 0 12 4 12 20 2 11 -7 20 -16 20 -19z m480 -309 c0 -5 -4 -10 -10 -10
-5 0 -10 5 -10 10 0 6 5 10 10 10 6 0 10 -4 10 -10z m270 -166 c0 -2 -7 -4
-15 -4 -8 0 -15 4 -15 10 0 5 7 7 15 4 8 -4 15 -8 15 -10z m145 -94 c3 -5 1
-10 -4 -10 -6 0 -11 5 -11 10 0 6 2 10 4 10 3 0 8 -4 11 -10z m255 -166 c0 -2
-7 -4 -15 -4 -8 0 -15 4 -15 10 0 5 7 7 15 4 8 -4 15 -8 15 -10z m6423 -729
c-3 -9 -8 -14 -10 -11 -3 3 -2 9 2 15 9 16 15 13 8 -4z m-4960 -296 c-20 -33
-38 -57 -40 -55 -3 3 4 18 16 34 12 17 21 37 21 46 0 9 5 16 10 16 6 0 10 7
10 16 0 8 4 13 9 9 6 -3 -6 -33 -26 -66z m-53 31 c0 -5 -4 -10 -10 -10 -5 0
-10 5 -10 10 0 6 5 10 10 10 6 0 10 -4 10 -10z m3 -115 c-3 -9 -8 -14 -10 -11
-3 3 -2 9 2 15 9 16 15 13 8 -4z m-90 -150 c-3 -9 -8 -14 -10 -11 -3 3 -2 9 2
15 9 16 15 13 8 -4z m1323 -363 c-18 -16 -18 -16 -6 6 6 13 14 21 18 18 3 -4
-2 -14 -12 -24z m-24 -53 c-4 -13 -13 -25 -20 -27 -9 -2 -8 6 3 29 19 35 28
35 17 -2z m28 1 c0 -5 -5 -10 -11 -10 -5 0 -7 5 -4 10 3 6 8 10 11 10 2 0 4
-4 4 -10z m40 0 c0 -5 -4 -10 -10 -10 -5 0 -10 5 -10 10 0 6 5 10 10 10 6 0
10 -4 10 -10z m-110 -74 c0 -2 -7 -9 -15 -16 -13 -11 -14 -10 -9 4 5 14 24 23
24 12z m-40 -56 c-6 -11 -13 -20 -16 -20 -2 0 0 9 6 20 6 11 13 20 16 20 2 0
0 -9 -6 -20z"/>
<path d="M24280 30400 c0 -5 5 -10 11 -10 5 0 7 5 4 10 -3 6 -8 10 -11 10 -2
0 -4 -4 -4 -10z"/>
<path d="M24640 30160 c0 -5 5 -10 10 -10 6 0 10 5 10 10 0 6 -4 10 -10 10 -5
0 -10 -4 -10 -10z"/>
<path d="M25100 29781 c0 -6 5 -13 10 -16 6 -3 10 1 10 9 0 9 -4 16 -10 16 -5
0 -10 -4 -10 -9z"/>
<path d="M25600 29420 c0 -5 5 -10 10 -10 6 0 10 5 10 10 0 6 -4 10 -10 10 -5
0 -10 -4 -10 -10z"/>
<path d="M27040 28600 c0 -5 5 -10 11 -10 5 0 7 5 4 10 -3 6 -8 10 -11 10 -2
0 -4 -4 -4 -10z"/>
<path d="M27340 28340 c0 -5 5 -10 10 -10 6 0 10 5 10 10 0 6 -4 10 -10 10 -5
0 -10 -4 -10 -10z"/>
<path d="M27586 28173 c-6 -14 -5 -15 5 -6 7 7 10 15 7 18 -3 3 -9 -2 -12 -12z"/>
<path d="M33801 27764 c0 -11 3 -14 6 -6 3 7 2 16 -1 19 -3 4 -6 -2 -5 -13z"/>
<path d="M33821 27724 c0 -11 3 -14 6 -6 3 7 2 16 -1 19 -3 4 -6 -2 -5 -13z"/>
<path d="M33688 27683 c6 -2 18 -2 25 0 6 3 1 5 -13 5 -14 0 -19 -2 -12 -5z"/>
<path d="M33608 27663 c7 -3 16 -2 19 1 4 3 -2 6 -13 5 -11 0 -14 -3 -6 -6z"/>
<path d="M33840 27631 c0 -7 -4 -9 -10 -6 -5 3 -10 1 -10 -4 0 -6 4 -11 9 -11
13 0 25 20 17 27 -3 4 -6 1 -6 -6z"/>
<path d="M33875 27629 c-4 -6 -4 -13 -1 -16 3 -3 -2 -12 -12 -20 -16 -12 -16
-13 2 -6 13 4 17 3 12 -5 -4 -7 -2 -12 3 -12 6 0 11 16 11 35 0 36 -4 43 -15
24z"/>
<path d="M33448 27623 c6 -2 18 -2 25 0 6 3 1 5 -13 5 -14 0 -19 -2 -12 -5z"/>
<path d="M28460 27600 c0 -5 5 -10 10 -10 6 0 10 5 10 10 0 6 -4 10 -10 10 -5
0 -10 -4 -10 -10z"/>
<path d="M33720 27600 c-12 -8 -9 -10 13 -10 15 0 27 5 27 10 0 13 -20 13 -40
0z"/>
<path d="M33260 27580 c0 -5 5 -10 10 -10 6 0 10 5 10 10 0 6 -4 10 -10 10 -5
0 -10 -4 -10 -10z"/>
<path d="M33645 27580 c-18 -8 -17 -9 8 -9 15 -1 27 4 27 9 0 12 -8 12 -35 0z"/>
<path d="M33555 27560 c-19 -8 -19 -9 3 -9 12 -1 22 4 22 9 0 6 -1 10 -2 9 -2
0 -12 -4 -23 -9z"/>
<path d="M33920 27547 c0 -9 -4 -17 -10 -17 -5 0 -10 -4 -10 -10 0 -5 4 -10 9
-10 12 0 25 39 17 47 -3 4 -6 -1 -6 -10z"/>
<path d="M33128 27543 c7 -3 16 -2 19 1 4 3 -2 6 -13 5 -11 0 -14 -3 -6 -6z"/>
<path d="M33468 27533 c6 -2 18 -2 25 0 6 3 1 5 -13 5 -14 0 -19 -2 -12 -5z"/>
<path d="M33936 27532 c-8 -14 4 -43 15 -36 5 3 9 -3 10 -13 0 -10 3 -13 5 -7
6 15 -22 68 -30 56z"/>
<path d="M33033 27523 c9 -2 23 -2 30 0 6 3 -1 5 -18 5 -16 0 -22 -2 -12 -5z"/>
<path d="M33395 27520 c-17 -7 -15 -9 13 -9 17 -1 32 4 32 9 0 12 -17 12 -45
0z"/>
<path d="M33760 27524 c0 -3 6 -12 14 -20 18 -17 27 -18 24 -1 -2 6 3 11 10
10 6 -2 12 2 12 7 0 6 -13 10 -30 10 -16 0 -30 -3 -30 -6z"/>
<path d="M32953 27503 c9 -2 23 -2 30 0 6 3 -1 5 -18 5 -16 0 -22 -2 -12 -5z"/>
<path d="M33315 27500 c-19 -8 -19 -9 3 -9 12 -1 22 4 22 9 0 6 -1 10 -2 9 -2
0 -12 -4 -23 -9z"/>
<path d="M33225 27480 l-30 -8 37 -1 c20 0 40 4 43 9 7 11 -6 11 -50 0z"/>
<path d="M33600 27480 c0 -5 5 -10 10 -10 6 0 10 5 10 10 0 6 -4 10 -10 10 -5
0 -10 -4 -10 -10z"/>
<path d="M32768 27463 c6 -2 18 -2 25 0 6 3 1 5 -13 5 -14 0 -19 -2 -12 -5z"/>
<path d="M33140 27460 c-24 -8 -23 -8 8 -9 17 -1 32 4 32 9 0 11 -5 11 -40 0z"/>
<path d="M32320 27440 c0 -5 5 -10 10 -10 6 0 10 5 10 10 0 6 -4 10 -10 10 -5
0 -10 -4 -10 -10z"/>
<path d="M33048 27433 c6 -2 18 -2 25 0 6 3 1 5 -13 5 -14 0 -19 -2 -12 -5z"/>
<path d="M32580 27422 c0 -5 14 -7 30 -4 17 2 30 6 30 8 0 2 -13 4 -30 4 -16
0 -30 -4 -30 -8z"/>
<path d="M32955 27414 c-27 -7 -61 -14 -75 -14 -15 0 -30 -4 -35 -9 -6 -5 -26
-11 -45 -14 -30 -3 -28 -4 13 -5 26 -1 47 3 47 8 0 6 23 10 50 10 28 0 50 5
50 10 0 6 14 10 30 10 17 0 30 5 30 10 0 12 -2 12 -65 -6z"/>
<path d="M33120 27400 c0 -5 5 -10 10 -10 6 0 10 5 10 10 0 6 -4 10 -10 10 -5
0 -10 -4 -10 -10z"/>
<path d="M32730 27360 l-25 -8 28 -1 c15 -1 27 4 27 9 0 6 -1 10 -2 9 -2 -1
-14 -5 -28 -9z"/>
<path d="M32655 27340 c-19 -8 -19 -9 3 -9 12 -1 22 4 22 9 0 6 -1 10 -2 9 -2
0 -12 -4 -23 -9z"/>
<path d="M29020 27320 c0 -5 5 -10 10 -10 6 0 10 5 10 10 0 6 -4 10 -10 10 -5
0 -10 -4 -10 -10z"/>
<path d="M32550 27320 c-12 -8 -11 -10 8 -10 12 0 22 5 22 10 0 13 -11 13 -30
0z"/>
<path d="M32485 27300 l-30 -8 33 -1 c17 0 32 4 32 9 0 6 -1 9 -2 9 -2 -1 -16
-5 -33 -9z"/>
<path d="M32355 27270 c-3 -5 -21 -10 -38 -11 -18 0 -50 -6 -72 -14 l-40 -13
38 -1 c20 -1 37 4 37 9 0 6 23 10 50 10 28 0 50 4 50 9 0 5 10 12 23 14 16 3
14 5 -10 6 -17 0 -35 -3 -38 -9z"/>
<path d="M31948 27263 c7 -3 16 -2 19 1 4 3 -2 6 -13 5 -11 0 -14 -3 -6 -6z"/>
<path d="M32460 27260 c0 -5 5 -10 10 -10 6 0 10 5 10 10 0 6 -4 10 -10 10 -5
0 -10 -4 -10 -10z"/>
<path d="M32128 27213 c6 -2 18 -2 25 0 6 3 1 5 -13 5 -14 0 -19 -2 -12 -5z"/>
<path d="M32060 27200 c-24 -8 -23 -8 8 -9 17 -1 32 4 32 9 0 11 -5 11 -40 0z"/>
<path d="M31968 27173 c6 -2 18 -2 25 0 6 3 1 5 -13 5 -14 0 -19 -2 -12 -5z"/>
<path d="M31870 27155 c-82 -18 -90 -23 -37 -24 26 -1 47 4 47 9 0 6 14 10 30
10 17 0 30 5 30 10 0 6 -3 9 -7 9 -5 -1 -33 -7 -63 -14z"/>
<path d="M31368 27123 c7 -3 16 -2 19 1 4 3 -2 6 -13 5 -11 0 -14 -3 -6 -6z"/>
<path d="M31725 27120 c-16 -7 -13 -9 18 -9 20 -1 37 4 37 9 0 12 -27 12 -55
0z"/>
<path d="M31645 27100 c-18 -8 -17 -9 8 -9 15 -1 27 4 27 9 0 12 -8 12 -35 0z"/>
<path d="M31570 27080 c-22 -7 -21 -8 13 -9 20 -1 37 4 37 9 0 11 -14 11 -50
0z"/>
<path d="M31128 27063 c7 -3 16 -2 19 1 4 3 -2 6 -13 5 -11 0 -14 -3 -6 -6z"/>
<path d="M31480 27060 c-24 -8 -23 -8 8 -9 17 -1 32 4 32 9 0 11 -5 11 -40 0z"/>
<path d="M31400 27040 c-13 -8 -12 -10 3 -10 9 0 17 5 17 10 0 12 -1 12 -20 0z"/>
<path d="M31325 27020 c-18 -8 -17 -9 8 -9 15 -1 27 4 27 9 0 12 -8 12 -35 0z"/>
<path d="M31820 27020 c0 -5 5 -10 10 -10 6 0 10 5 10 10 0 6 -4 10 -10 10 -5
0 -10 -4 -10 -10z"/>
<path d="M31228 26998 c-33 -11 -37 -28 -8 -28 11 0 20 5 20 10 0 6 9 10 20
10 11 0 20 5 20 10 0 12 -16 12 -52 -2z"/>
<path d="M30431 26964 c0 -11 3 -14 6 -6 3 7 2 16 -1 19 -3 4 -6 -2 -5 -13z"/>
<path d="M30728 26963 c7 -3 16 -2 19 1 4 3 -2 6 -13 5 -11 0 -14 -3 -6 -6z"/>
<path d="M31075 26960 c-17 -7 -15 -9 13 -9 17 -1 32 4 32 9 0 12 -17 12 -45
0z"/>
<path d="M30865 26910 c-68 -17 -69 -18 -27 -19 23 0 42 4 42 9 0 6 14 10 30
10 17 0 30 5 30 10 0 6 -1 10 -2 9 -2 0 -34 -9 -73 -19z"/>
<path d="M30448 26903 c6 -2 18 -2 25 0 6 3 1 5 -13 5 -14 0 -19 -2 -12 -5z"/>
<path d="M30735 26880 c-30 -8 -30 -8 8 -9 20 0 37 4 37 9 0 11 -2 11 -45 0z"/>
<path d="M30538 26833 c7 -3 16 -2 19 1 4 3 -2 6 -13 5 -11 0 -14 -3 -6 -6z"/>
<path d="M30402 26801 c-61 -16 -63 -17 -45 -33 18 -17 20 -16 33 2 8 12 26
20 42 20 15 0 28 4 28 9 0 5 10 12 23 14 18 4 19 4 2 5 -11 0 -49 -7 -83 -17z"/>
<path d="M30304 26752 c4 -7 2 -12 -3 -12 -16 0 -13 -33 4 -56 11 -13 14 -14
13 -4 -2 8 -7 18 -13 22 -6 5 -5 8 3 8 15 0 16 36 0 46 -7 4 -8 3 -4 -4z"/>
<path d="M30337 26704 c-8 -8 3 -34 14 -34 5 0 9 9 9 20 0 19 -11 26 -23 14z"/>
<path d="M30385 26700 c-3 -5 -1 -10 4 -10 6 0 11 5 11 10 0 6 -2 10 -4 10 -3
0 -8 -4 -11 -10z"/>
<path d="M30265 26680 c3 -5 8 -10 11 -10 2 0 4 5 4 10 0 6 -5 10 -11 10 -5 0
-7 -4 -4 -10z"/>
<path d="M30380 26620 c0 -5 5 -10 10 -10 6 0 10 5 10 10 0 6 -4 10 -10 10 -5
0 -10 -4 -10 -10z"/>
<path d="M30217 26596 c-4 -11 -5 -21 -2 -24 3 -3 5 1 5 9 0 10 3 10 8 3 5 -8
11 -7 22 4 13 14 12 15 -2 9 -9 -3 -18 -1 -21 6 -2 6 -7 3 -10 -7z"/>
<path d="M19540 14835 c-344 -63 -640 -285 -798 -600 -86 -173 -118 -330 -109
-544 17 -418 242 -760 622 -941 264 -126 611 -145 897 -49 350 117 621 407
720 772 20 72 23 107 23 277 0 182 -2 201 -27 293 -54 192 -141 342 -277 478
-166 166 -361 268 -602 314 -101 19 -344 19 -449 0z m420 -443 c192 -62 343
-212 414 -411 29 -82 31 -94 31 -236 0 -139 -2 -156 -28 -232 -55 -159 -166
-293 -303 -365 -109 -57 -173 -72 -304 -72 -131 0 -194 15 -305 72 -89 46
-208 163 -258 252 -64 117 -82 195 -82 355 1 127 3 148 29 220 74 216 234 370
438 425 97 27 272 22 368 -8z"/>
<path d="M32791 14840 c-176 -25 -312 -90 -426 -205 -128 -127 -175 -246 -175
-445 0 -174 41 -290 140 -390 106 -109 241 -170 562 -256 358 -95 438 -146
438 -281 0 -127 -117 -203 -311 -203 -192 0 -366 63 -562 204 l-76 55 -122
-147 c-67 -81 -129 -155 -137 -165 -14 -16 -13 -20 8 -42 40 -42 196 -144 283
-185 205 -96 343 -125 597 -125 172 0 205 3 278 23 263 72 425 224 487 457 21
80 21 270 0 349 -32 121 -103 217 -219 294 -102 68 -219 115 -461 183 -256 72
-337 102 -383 143 -118 104 -64 276 101 317 75 18 247 6 332 -23 78 -28 209
-92 281 -138 26 -16 51 -30 55 -30 4 0 42 51 85 113 42 61 97 140 121 174 l44
61 -83 55 c-151 100 -298 161 -462 192 -100 19 -309 27 -395 15z"/>
<path d="M16830 13750 l0 -1070 770 0 770 0 0 210 0 210 -535 0 -535 0 0 860
0 860 -235 0 -235 0 0 -1070z"/>
<path d="M21330 13751 l0 -1071 235 0 235 0 0 340 0 340 185 0 185 0 227 -340
226 -340 275 0 274 0 -18 28 c-9 15 -125 184 -256 375 -131 191 -238 351 -238
355 0 4 21 16 47 26 74 31 188 112 243 174 63 70 126 194 145 287 22 104 19
282 -5 384 -51 211 -196 371 -408 448 -148 54 -165 56 -779 60 l-573 4 0
-1070z m1103 619 c83 -26 158 -90 184 -158 27 -70 24 -191 -6 -260 -32 -72
-96 -127 -179 -152 -58 -18 -93 -20 -348 -20 l-284 0 0 305 0 305 284 0 c256
0 290 -2 349 -20z"/>
<path d="M23540 13750 l0 -1070 815 0 815 0 0 205 0 205 -582 2 -583 3 0 225
0 225 508 3 507 2 0 205 0 205 -507 2 -508 3 0 215 0 215 573 3 572 2 0 210 0
210 -805 0 -805 0 0 -1070z"/>
<path d="M25590 13750 l0 -1070 235 0 235 0 2 689 3 689 295 -449 c162 -247
298 -449 301 -449 4 0 141 204 305 453 l299 453 3 -693 2 -693 235 0 235 0 0
1070 0 1070 -256 -2 -257 -3 -281 -452 -281 -452 -50 79 c-27 44 -155 249
-283 455 l-233 375 -254 0 -255 0 0 -1070z"/>
<path d="M29190 13750 l0 -1070 235 0 235 0 0 1070 0 1070 -235 0 -235 0 0
-1070z"/>
<path d="M30200 13750 l0 -1070 235 0 235 0 0 320 0 320 228 0 c325 0 453 23
622 111 133 69 228 162 295 291 55 105 77 201 77 348 1 150 -16 231 -72 345
-71 145 -172 244 -325 316 -171 80 -254 89 -832 89 l-463 0 0 -1070z m991 624
c155 -45 237 -164 227 -329 -8 -125 -73 -220 -187 -274 -55 -26 -59 -26 -308
-29 l-253 -3 0 325 0 326 233 0 c182 0 245 -3 288 -16z"/>
<path d="M34177 14813 c-11 -10 -8 -1193 3 -1331 11 -139 37 -262 76 -354 58
-139 174 -274 303 -352 270 -165 722 -179 1026 -33 250 121 403 354 445 677 5
42 10 370 10 738 l0 662 -235 0 -235 0 0 -662 c0 -714 -2 -741 -53 -851 -77
-167 -258 -251 -483 -226 -142 16 -261 92 -322 207 -65 123 -65 118 -69 860
l-4 672 -228 0 c-125 0 -231 -3 -234 -7z"/>
<path d="M36520 13750 l0 -1070 235 0 235 0 2 689 3 689 295 -449 c162 -247
298 -449 302 -449 3 0 140 204 305 453 l298 453 3 -693 2 -693 235 0 235 0 0
1070 0 1070 -256 -2 -257 -3 -281 -452 c-173 -279 -283 -448 -288 -440 -4 6
-131 210 -281 452 l-274 440 -257 3 -256 2 0 -1070z"/>
<path d="M25152 11691 c-100 -35 -154 -111 -154 -216 1 -117 50 -169 205 -215
56 -17 122 -41 147 -53 39 -19 45 -27 48 -58 4 -45 -22 -70 -82 -76 -62 -7
-139 13 -199 54 l-52 35 -47 -53 c-26 -30 -48 -57 -48 -61 0 -15 82 -67 136
-87 212 -80 414 -20 453 135 14 53 14 79 1 126 -23 83 -87 126 -258 176 -114
33 -142 52 -142 93 0 78 116 93 238 31 l62 -31 41 61 c40 59 41 62 23 75 -99
75 -261 102 -372 64z"/>
<path d="M25958 11691 c-73 -24 -116 -51 -166 -105 -86 -93 -125 -222 -103
-337 25 -128 106 -235 216 -285 211 -97 454 -16 552 183 26 54 28 67 28 173 0
110 -1 118 -32 175 -33 63 -94 128 -153 163 -90 52 -236 67 -342 33z m251
-168 c126 -78 148 -271 44 -378 -47 -49 -88 -65 -163 -65 -166 0 -269 153
-218 324 16 54 91 130 144 144 62 18 140 7 193 -25z"/>
<path d="M28800 11695 c-62 -19 -125 -75 -145 -130 -23 -60 -17 -164 11 -202
37 -50 96 -81 219 -117 91 -26 125 -41 142 -61 29 -33 29 -47 0 -81 -46 -54
-175 -41 -277 28 l-44 30 -48 -53 c-26 -30 -46 -58 -45 -64 6 -20 101 -75 165
-96 95 -30 219 -30 289 1 152 65 194 256 79 357 -43 38 -84 55 -244 104 -103
31 -133 83 -74 129 40 32 130 25 211 -17 l61 -32 40 57 c22 31 39 61 37 66 -6
19 -119 74 -175 85 -73 14 -146 13 -202 -4z"/>
<path d="M30278 11691 c-74 -24 -115 -50 -170 -108 -180 -194 -121 -511 117
-619 210 -96 444 -20 547 177 32 61 33 69 33 174 0 98 -3 116 -26 165 -86 184
-302 274 -501 211z m245 -164 c127 -75 156 -254 59 -367 -53 -63 -101 -83
-188 -78 -62 3 -79 8 -116 35 -124 89 -134 288 -18 385 21 18 53 38 71 45 51
19 141 10 192 -20z"/>
<path d="M31208 11695 c-110 -36 -217 -140 -255 -247 -24 -70 -24 -195 0 -264
39 -112 116 -193 225 -235 45 -18 78 -22 157 -22 115 -1 184 19 272 78 l53 35
0 165 0 165 -165 0 -165 0 0 -70 0 -70 85 0 86 0 -3 -57 c-3 -57 -4 -58 -43
-78 -57 -28 -165 -27 -221 2 -89 47 -128 121 -122 234 3 67 7 83 33 120 67 95
162 128 267 94 29 -9 67 -28 85 -41 l31 -24 51 63 52 62 -33 28 c-55 46 -131
69 -243 73 -70 3 -114 -1 -147 -11z"/>
<path d="M22295 11333 c-86 -202 -159 -374 -162 -380 -4 -10 16 -13 80 -13
l84 0 34 83 34 82 164 0 163 0 32 -80 32 -80 87 -3 c48 -1 87 -1 87 1 0 2 -72
172 -159 378 l-159 374 -80 3 -80 3 -157 -368z m285 47 c23 -58 44 -111 47
-117 4 -10 -19 -13 -96 -13 -56 0 -101 3 -101 8 0 19 96 240 102 234 3 -4 25
-54 48 -112z"/>
<path d="M23001 11693 c0 -5 57 -177 128 -383 l127 -375 74 0 74 0 17 45 c8
25 46 134 84 243 37 109 70 195 74 192 3 -4 43 -113 87 -243 l82 -237 74 -3
74 -3 127 378 c70 208 127 381 127 386 0 4 -38 7 -83 7 l-84 0 -78 -255 c-43
-140 -82 -252 -86 -248 -4 5 -43 118 -86 253 l-80 245 -73 0 -73 0 -85 -254
c-52 -156 -88 -248 -92 -240 -4 8 -41 123 -81 257 l-74 242 -87 0 c-49 0 -88
-3 -87 -7z"/>
<path d="M24280 11320 l0 -380 290 0 290 0 0 70 0 70 -205 0 -205 0 0 85 0 85
180 0 180 0 0 70 0 70 -180 0 -180 0 0 80 0 80 205 0 205 0 0 75 0 75 -290 0
-290 0 0 -380z"/>
<path d="M26650 11320 l0 -380 80 0 80 0 2 243 3 242 104 -155 c56 -85 105
-157 106 -158 2 -2 52 69 112 158 l108 163 3 -247 2 -246 80 0 80 0 0 380 0
380 -89 0 -90 0 -98 -160 c-54 -88 -100 -160 -103 -160 -3 0 -50 72 -104 160
l-99 160 -88 0 -89 0 0 -380z"/>
<path d="M27600 11320 l0 -380 290 0 290 0 0 70 0 70 -210 0 -211 0 3 83 3 82
178 3 177 2 0 70 0 70 -180 0 -180 0 0 80 0 80 205 0 205 0 0 75 0 75 -285 0
-285 0 0 -380z"/>
<path d="M29360 11320 l0 -380 275 0 275 0 0 70 0 70 -192 2 -193 3 -3 308 -2
307 -80 0 -80 0 0 -380z"/>
<path d="M31956 11398 c-71 -167 -144 -338 -162 -381 l-34 -78 86 3 86 3 33
80 33 80 163 0 162 0 35 -82 35 -83 83 0 c46 0 84 3 84 8 0 4 -71 174 -158
377 l-158 370 -80 3 -79 3 -129 -303z m304 -140 c0 -4 -45 -8 -100 -8 -55 0
-100 2 -100 5 0 5 90 227 97 239 5 7 103 -217 103 -236z"/>
<path d="M32690 11320 l0 -380 80 0 80 0 2 240 3 240 183 -240 183 -240 74 0
75 0 0 380 0 380 -85 0 -85 0 -2 -232 -3 -233 -175 232 -175 232 -77 0 -78 1
0 -380z"/>
</g>
</svg>
